# File created by Blade
# Date/Time:  Thu Jan 15 19:03:44 2015
#---------------------------------------------------------
:version 1.10
:name HOM
:units
  mass 1.0
  length 1.000000
  angle deg
:documentation
     Acclaim Skeleton File
:root
   axis xyz
   order TX TY TZ RX RY RZ
   position 0.000000 0.000000 0.000000
   orientation 0 0 0
:bonedata
   begin
      id 1
      name Spine_dum
      direction 0.000000 1.000000 0.000000
      length 4.354460
      axis 0.0 0.0 0.0 xyz
   end
   begin
      id 2
      name LeftUpLeg_dum
      direction 1.000000 0.000000 0.000000
      length 4.291077
      axis 0.0 0.0 0.0 xyz
   end
   begin
      id 3
      name RightUpLeg_dum
      direction -1.000000 0.000000 0.000000
      length 4.291077
      axis 0.0 0.0 0.0 xyz
   end
   begin
      id 4
      name Spine
      direction 0.000000 1.000000 0.000000
      length 0.000000
      axis 0.0 0.0 0.0 xyz
      dof rx ry rz
   end
   begin
      id 5
      name Spine_dum1
      direction 0.000000 1.000000 0.000000
      length 16.581769
      axis 0.0 0.0 0.0 xyz
   end
   begin
      id 6
      name Spine_dum2
      direction 0.000000 1.000000 0.000000
      length 12.903700
      axis 0.0 0.0 0.0 xyz
   end
   begin
      id 7
      name Spine_dum3
      direction 0.000000 1.000000 0.000000
      length 12.903700
      axis 0.0 0.0 0.0 xyz
   end
   begin
      id 8
      name Head
      direction 0.000000 1.000000 0.000000
      length 4.527550
      axis 0.0 0.0 0.0 xyz
      dof rx ry rz
   end
   begin
      id 9
      name LeftShoulder
      direction 1.000000 0.000000 0.000000
      length 6.942033
      axis 0.0 0.0 -90.0 xyz
      dof rx ry rz
   end
   begin
      id 10
      name LeftArm
      direction 1.000000 0.000000 0.000000
      length 11.010391
      axis 0.0 0.0 -90.0 xyz
      dof rx ry rz
   end
   begin
      id 11
      name LeftForeArm
      direction 1.000000 0.000000 0.000000
      length 8.054994
      axis 0.0 0.0 -90.0 xyz
      dof rz ry rx
   end
   begin
      id 12
      name LeftHand
      direction 0.000000 0.000000 0.000000
      length 0.000000
      axis 0.0 0.0 -90.0 xyz
      dof rx ry rz
   end
   begin
      id 13
      name LeftHand_dum1
      direction 0.000000 0.000000 0.000000
      length 0.000000
      axis 0.0 0.0 -90.0 xyz
   end
   begin
      id 14
      name LeftHand_dum2
      direction 1.000000 0.000000 0.000000
      length 3.937000
      axis 0.0 0.0 -90.0 xyz
   end
   begin
      id 15
      name LeftHandThumb1
      direction 0.000000 0.000000 1.000000
      length 3.937000
      axis 0.0 0.0 -90.0 xyz
      dof rx ry rz
   end
   begin
      id 16
      name RightShoulder
      direction -1.000000 0.000000 0.000000
      length 6.942033
      axis 0.0 0.0 90.0 xyz
      dof rx ry rz
   end
   begin
      id 17
      name RightArm
      direction -1.000000 0.000000 0.000000
      length 11.010391
      axis 0.0 0.0 90.0 xyz
      dof rx ry rz
   end
   begin
      id 18
      name RightForeArm
      direction -1.000000 0.000000 0.000000
      length 8.054994
      axis 0.0 0.0 90.0 xyz
      dof rz ry rx
   end
   begin
      id 19
      name RightHand
      direction 0.000000 0.000000 0.000000
      length 0.000000
      axis 0.0 0.0 90.0 xyz
      dof rx ry rz
   end
   begin
      id 20
      name RightHand_dum1
      direction 0.000000 0.000000 0.000000
      length 0.000000
      axis 0.0 0.0 90.0 xyz
   end
   begin
      id 21
      name RightHand_dum2
      direction -1.000000 0.000000 0.000000
      length 3.937000
      axis 0.0 0.0 90.0 xyz
   end
   begin
      id 22
      name RightHandThumb1
      direction 0.000000 0.000000 1.000000
      length 3.937000
      axis 0.0 0.0 90.0 xyz
      dof rx ry rz
   end
   begin
      id 23
      name LeftUpLeg
      direction 0.000000 -1.000000 0.000000
      length 17.039958
      axis 0.0 0.0 0.0 xyz
      dof rx ry rz
   end
   begin
      id 24
      name LeftLeg
      direction 0.000000 -1.000000 0.000000
      length 16.939743
      axis 0.0 0.0 0.0 xyz
      dof rx ry rz
   end
   begin
      id 25
      name LeftFoot
      direction 0.000000 -0.258819 0.965926
      length 5.235044
      axis 15.0 0.0 0.0 xyz
      dof rx ry rz
   end
   begin
      id 26
      name LeftToeBase
      direction 0.000000 0.000000 1.000000
      length 2.952750
      axis 0.0 0.0 0.0 xyz
      dof rx ry rz
   end
   begin
      id 27
      name RightUpLeg
      direction 0.000000 -1.000000 0.000000
      length 17.039958
      axis 0.0 0.0 0.0 xyz
      dof rx ry rz
   end
   begin
      id 28
      name RightLeg
      direction 0.000000 -1.000000 0.000000
      length 16.939743
      axis 0.0 0.0 0.0 xyz
      dof rx ry rz
   end
   begin
      id 29
      name RightFoot
      direction 0.000000 -0.258819 0.965926
      length 5.235044
      axis 15.0 0.0 0.0 xyz
      dof rx ry rz
   end
   begin
      id 30
      name RightToeBase
      direction 0.000000 0.000000 1.000000
      length 2.952750
      axis 0.0 0.0 0.0 xyz
      dof rx ry rz
   end
:hierarchy
   begin
      root Spine_dum LeftUpLeg_dum RightUpLeg_dum
      Spine_dum Spine
      LeftUpLeg_dum LeftUpLeg
      RightUpLeg_dum RightUpLeg
      Spine Spine_dum1 Spine_dum2 Spine_dum3
      Spine_dum1 Head
      Spine_dum2 LeftShoulder
      Spine_dum3 RightShoulder
      LeftShoulder LeftArm
      LeftArm LeftForeArm
      LeftForeArm LeftHand
      LeftHand LeftHand_dum1 LeftHand_dum2
      LeftHand_dum1 LeftHandThumb1
      RightShoulder RightArm
      RightArm RightForeArm
      RightForeArm RightHand
      RightHand RightHand_dum1 RightHand_dum2
      RightHand_dum1 RightHandThumb1
      LeftUpLeg LeftLeg
      LeftLeg LeftFoot
      LeftFoot LeftToeBase
      RightUpLeg RightLeg
      RightLeg RightFoot
      RightFoot RightToeBase
   end

# File created by Blade
# Date/Time:  Thu Jan 15 19:03:33 2015
# Frame Rate: 120.000 fps
#------------------------------------------------------
:FULLY-SPECIFIED
:DEGREES
1553
root -2.044018 35.611495 -9.407855 -187.076430 -14.231007 -177.725004
Spine 5.714367 -2.608525 -2.536364
Head 4.092944 -10.864595 15.513954
LeftShoulder -5.012631 14.757303 -1.847696
LeftArm 15.411915 -16.461730 -77.361698
LeftForeArm -0.000000 -0.227806 9.498901
LeftHand 2.748417 -0.000000 3.596281
LeftHandThumb1 -26.253704 33.147579 0.000000
RightShoulder -21.394636 -6.813653 6.391455
RightArm -0.698365 6.616396 72.594949
RightForeArm -0.000000 -27.920331 30.041281
RightHand 0.447580 -0.000000 4.586466
RightHandThumb1 -24.326973 -32.862282 -0.000000
LeftUpLeg 8.586954 8.858070 -8.563770
LeftLeg 2.446327 -0.000000 -0.000000
LeftFoot -16.267143 17.658131 -6.904858
LeftToeBase 18.565260 -0.000000 -0.000000
RightUpLeg -75.776825 0.653458 13.409222
RightLeg 109.137434 -0.000000 -0.000000
RightFoot 37.084194 -39.740686 -21.003002
RightToeBase 17.028171 -0.000000 -0.000000
1554
root -2.086668 35.608196 -9.394153 -187.006132 -13.730142 -177.682645
Spine 5.604458 -2.256264 -2.328034
Head 4.085154 -10.782392 15.417785
LeftShoulder -5.035774 14.726823 -1.939336
LeftArm 15.215820 -16.608070 -77.312737
LeftForeArm -0.000000 -0.221352 9.492913
LeftHand 2.655023 -0.000000 3.386174
LeftHandThumb1 -26.253704 33.147579 0.000000
RightShoulder -21.345900 -6.765529 6.350731
RightArm -0.542383 6.555538 72.501983
RightForeArm -0.000000 -28.285883 30.267665
RightHand 0.497005 -0.000000 4.853795
RightHandThumb1 -24.326973 -32.862282 -0.000000
LeftUpLeg 8.556815 9.231296 -8.556639
LeftLeg 2.318691 -0.000000 -0.000000
LeftFoot -16.300415 17.698389 -6.962997
LeftToeBase 18.663520 -0.000000 -0.000000
RightUpLeg -75.944198 -0.233396 13.665098
RightLeg 109.098542 -0.000000 -0.000000
RightFoot 37.154953 -39.841937 -20.960375
RightToeBase 17.144332 -0.000000 -0.000000
1555
root -2.127266 35.604685 -9.379513 -186.920369 -13.290145 -177.661665
Spine 5.503361 -1.940764 -2.195606
Head 4.025703 -10.763542 15.400506
LeftShoulder -5.069265 14.690200 -1.962039
LeftArm 15.042134 -16.756484 -77.331458
LeftForeArm -0.000000 -0.278323 9.486972
LeftHand 2.696677 -0.000000 3.481267
LeftHandThumb1 -26.253704 33.147579 0.000000
RightShoulder -21.332417 -6.690557 6.333601
RightArm -0.368086 6.399815 72.407229
RightForeArm 0.000000 -28.376386 30.393463
RightHand 0.620276 0.000000 4.814938
RightHandThumb1 -24.326973 -32.862282 -0.000000
LeftUpLeg 8.492550 9.586651 -8.565383
LeftLeg 2.239861 -0.000000 -0.000000
LeftFoot -16.334355 17.679050 -7.030493
LeftToeBase 18.756969 -0.000000 -0.000000
RightUpLeg -76.144449 -1.145817 13.878376
RightLeg 109.057228 -0.000000 -0.000000
RightFoot 37.345481 -39.847608 -21.042708
RightToeBase 17.172433 -0.000000 -0.000000
1556
root -2.169121 35.602710 -9.367320 -186.836452 -12.873821 -177.630011
Spine 5.387959 -1.661137 -2.048278
Head 3.998997 -10.741243 15.357548
LeftShoulder -5.107197 14.669517 -1.991232
LeftArm 14.840505 -16.851564 -77.315094
LeftForeArm -0.000000 -0.255807 9.513102
LeftHand 2.613277 0.000000 3.467557
LeftHandThumb1 -26.253704 33.147579 0.000000
RightShoulder -21.310764 -6.639768 6.318334
RightArm -0.181249 6.286086 72.310190
RightForeArm -0.000000 -28.542913 30.534595
RightHand 0.694521 -0.000000 4.878760
RightHandThumb1 -24.326973 -32.862282 -0.000000
LeftUpLeg 8.446666 9.934712 -8.562462
LeftLeg 2.135094 -0.000000 -0.000000
LeftFoot -16.390320 17.620979 -7.167001
LeftToeBase 18.911201 -0.000000 -0.000000
RightUpLeg -76.353471 -2.103070 14.094370
RightLeg 109.040762 -0.000000 -0.000000
RightFoot 37.417351 -39.843326 -20.998354
RightToeBase 17.097917 -0.000000 -0.000000
1557
root -2.212949 35.600922 -9.353937 -186.751574 -12.446939 -177.605040
Spine 5.265077 -1.398692 -1.893830
Head 4.024758 -10.697241 15.263637
LeftShoulder -5.149897 14.676540 -2.036584
LeftArm 14.690056 -16.975376 -77.330484
LeftForeArm -0.000000 -0.421161 9.469235
LeftHand 2.698550 -0.000000 3.609526
LeftHandThumb1 -26.253704 33.147579 0.000000
RightShoulder -21.202491 -6.579306 6.279126
RightArm -0.069444 6.235417 72.221207
RightForeArm 0.000000 -28.818721 30.775986
RightHand 0.659236 -0.000000 5.039168
RightHandThumb1 -24.326973 -32.862282 -0.000000
LeftUpLeg 8.408462 10.294267 -8.568401
LeftLeg 2.011625 -0.000000 -0.000000
LeftFoot -16.413151 17.576465 -7.265407
LeftToeBase 19.106019 -0.000000 -0.000000
RightUpLeg -76.569490 -3.035261 14.274480
RightLeg 109.022686 -0.000000 -0.000000
RightFoot 37.430266 -39.842422 -20.919292
RightToeBase 17.125117 -0.000000 -0.000000
1558
root -2.256452 35.598769 -9.344080 -186.646132 -12.047643 -177.592568
Spine 5.133577 -1.137380 -1.776578
Head 4.000747 -10.678775 15.232190
LeftShoulder -5.181257 14.671097 -2.042013
LeftArm 14.471604 -17.150830 -77.359283
LeftForeArm -0.000000 -0.267443 9.527062
LeftHand 2.485358 -0.000000 3.293980
LeftHandThumb1 -26.253704 33.147579 0.000000
RightShoulder -21.192565 -6.512307 6.274264
RightArm 0.086202 5.980418 72.092281
RightForeArm 0.000000 -28.940748 30.983810
RightHand 0.557390 -0.000000 5.057013
RightHandThumb1 -24.326973 -32.862282 -0.000000
LeftUpLeg 8.357962 10.630087 -8.588544
LeftLeg 1.895614 -0.000000 -0.000000
LeftFoot -16.446014 17.499496 -7.392550
LeftToeBase 19.263418 -0.000000 -0.000000
RightUpLeg -76.816561 -3.985093 14.439188
RightLeg 109.015703 -0.000000 -0.000000
RightFoot 37.515201 -39.840434 -20.946469
RightToeBase 17.174758 -0.000000 -0.000000
1559
root -2.298210 35.597381 -9.334615 -186.527931 -11.713272 -177.567282
Spine 4.976182 -0.947087 -1.659174
Head 3.999212 -10.649851 15.188748
LeftShoulder -5.215850 14.740656 -2.043433
LeftArm 14.335730 -17.232330 -77.396724
LeftForeArm -0.000000 -0.447412 9.531132
LeftHand 2.674545 -0.000000 3.553448
LeftHandThumb1 -26.253704 33.147579 0.000000
RightShoulder -21.129223 -6.442889 6.237094
RightArm 0.179000 5.823343 71.995751
RightForeArm 0.000000 -29.039573 31.190199
RightHand 0.613018 -0.000000 5.084432
RightHandThumb1 -24.326973 -32.862282 -0.000000
LeftUpLeg 8.288589 10.926760 -8.601915
LeftLeg 1.793457 -0.000000 -0.000000
LeftFoot -16.471266 17.418150 -7.515506
LeftToeBase 19.372917 -0.000000 -0.000000
RightUpLeg -77.091826 -4.942982 14.582388
RightLeg 109.038602 -0.000000 -0.000000
RightFoot 37.495221 -39.709372 -20.914631
RightToeBase 17.216270 -0.000000 -0.000000
